<?xml version="1.0" encoding="utf-8"?>
<!-- Generator: Adobe Illustrator 22.0.0, SVG Export Plug-In . SVG Version: 6.00 Build 0)  -->
<svg version="1.1" id="LOGO" xmlns="http://www.w3.org/2000/svg" xmlns:xlink="http://www.w3.org/1999/xlink" x="0px" y="0px"
	 viewBox="0 0 638 638" style="enable-background:new 0 0 638 638;" xml:space="preserve">
<style type="text/css">
	.st0{display:none;fill:none;}
	.st1{fill:#3D037A;}
	.st2{fill:#020244;}
	.st3{fill:#0B0BAF;}
	.st4{fill:#190AE8;}
</style>
<title>logo</title>
<circle class="st0" cx="319" cy="319" r="319"/>
<circle class="st1" cx="319" cy="319" r="319"/>
<path class="st2" d="M333,598c160.6,0,292.2-123.7,305-281C636.9,141.8,494.5,0,319,0c-67.6,0-130.3,21.1-181.9,56.9
	C69.8,113.1,27,197.5,27,292C27,461,164,598,333,598z"/>
<path class="st3" d="M332.4,182.5c0.3,0.5,1,0.8,1.5,0.5c0.1-0.1,0.2-0.2,0.3-0.3c16-18.8,39.4-35.4,79.7-49.7
	c0.6-0.2,1.3-0.5,2-0.7c0.6-0.2,0.9-0.9,0.7-1.4c0,0,0,0,0-0.1C408,110,397.3,90,384.9,71.2c-0.1-0.2-0.3-0.3-0.5-0.4
	c-52.7-22.6-111-28.3-167.1-16.4c-3.1,0.7-6.2,1.4-9.3,2.1c-0.6,0.2-1,0.8-0.8,1.4c0.1,0.3,0.3,0.6,0.6,0.7
	C260.4,87,303.7,130,332.4,182.5z"/>
<path class="st4" d="M319,0c-3.1,0-6.2,0.1-9.3,0.1c24.9,21.5,46.7,46.3,64.9,73.7c12.6,19,23.4,39.2,32.1,60.2c0,0,0,0,0,0
	c0.2,0.4-0.1,0.9-0.5,1.1L404,136c-41.2,14.7-64.7,31.7-80.8,51c-14.3,17.2-22.7,36.3-32.4,57.1c-3.3,7-6.7,14.3-10.6,21.7
	c-24.3,46.6-111.2,67.2-172.2,82.1C62.3,359,164.1,486.7,216.4,489.7c28.1,1.7,25.9-0.1,53.5-3.9c32.2-4.5,82.2-22.5,118.2-41.7
	c0.3-0.1,0.6-0.1,0.9,0c0.4,0.2,0.6,0.8,0.4,1.2c-38.4,69.2-98.6,123.8-171.2,155.3c-8.9,3.9-18,7.4-27.2,10.5
	C230,628.4,273.4,638,319,638c176.2,0,319-142.8,319-319S495.2,0,319,0z"/>
</svg>
