<svg id="LOGO" xmlns="http://www.w3.org/2000/svg" xmlns:xlink="http://www.w3.org/1999/xlink" viewBox="0 0 642.73 657"><defs><style>.cls-1{fill:none;}.cls-2{clip-path:url(#clip-path);}.cls-3{fill:#47007a;}.cls-4{fill:url(#linear-gradient);}.cls-5{fill:#150aa5;}.cls-6{fill:#3205d6;}</style><clipPath id="clip-path" transform="translate(-5.72 -8)"><circle id="Background" class="cls-1" cx="324.72" cy="341" r="319"/></clipPath><linearGradient id="linear-gradient" x1="121.11" y1="94.11" x2="496.23" y2="469.23" gradientUnits="userSpaceOnUse"><stop offset="0" stop-color="#020159"/><stop offset="1" stop-color="#010036"/></linearGradient></defs><title>logo</title><g class="cls-2"><rect class="cls-3" y="14" width="638" height="638"/><circle class="cls-4" cx="333" cy="306" r="306"/><path class="cls-5" d="M338.11,204.54a1.12,1.12,0,0,0,1.85.19c16-18.79,39.42-35.39,79.72-49.69.65-.23,1.3-.47,2-.69a1.14,1.14,0,0,0,.68-1.52,355.08,355.08,0,0,0-31.78-59.64,1.13,1.13,0,0,0-.51-.43A277.53,277.53,0,0,0,223,76.37q-4.69,1-9.32,2.12a1.14,1.14,0,0,0-.25,2.11A308.85,308.85,0,0,1,338.11,204.54Z" transform="translate(-5.72 -8)"/><path class="cls-6" d="M648.45,341.19a326.3,326.3,0,0,1-3.68,48.95C621.17,545.76,486.84,665,324.64,665A322.52,322.52,0,0,1,189.4,635.48a356.25,356.25,0,0,0,34.29-12.81A359.73,359.73,0,0,0,394.92,467.33a.91.91,0,0,0-1.23-1.24c-36,19.2-86,37.27-118.15,41.74-27.51,3.83-25.39,5.54-53.45,3.89C169.85,508.66,68,381,113.6,369.87c61.06-14.93,147.92-35.48,172.24-82.1,3.89-7.44,7.33-14.68,10.62-21.72,9.71-20.78,18.1-39.83,32.44-57.06,16.06-19.31,39.59-36.33,80.78-51l2.26-.8a.85.85,0,0,0,.51-1.12,356.13,356.13,0,0,0-32.1-60.22,360.12,360.12,0,0,0-70.21-78.19q7.22-.33,14.5-.33C503.48,17.38,648.45,162.36,648.45,341.19Z" transform="translate(-5.72 -8)"/></g></svg>